# xmcd
#
# Track frame offsets:
#	150
#	16423
#	37237
#	53927
#	70028
#
# Disc length: 1196 seconds
#
# Revision: 1
# Processed by: cddbd v1.4PL0 Copyright (c) Steve Scherf et al.
# Submitted via: audiograbber 1.82.01
#
DISCID=4004aa05
DTITLE=Mestisay - cd maxi
DYEAR=1900
DGENRE=Pop
TTITLE0=Fado do mar
TTITLE1=Mirame bien
TTITLE2=Luna de Abril
TTITLE3=La ultima vez
TTITLE4=Ramito de violetas
EXTD=
EXTT0=
EXTT1=
EXTT2=
EXTT3=
EXTT4=
PLAYORDER=
